<?xml version="1.0" encoding="UTF-8" standalone="no"?>
<!-- Created with Inkscape (http://www.inkscape.org/) -->

<svg
   xmlns:dc="http://purl.org/dc/elements/1.1/"
   xmlns:cc="http://creativecommons.org/ns#"
   xmlns:rdf="http://www.w3.org/1999/02/22-rdf-syntax-ns#"
   xmlns:svg="http://www.w3.org/2000/svg"
   xmlns="http://www.w3.org/2000/svg"
   xmlns:sodipodi="http://sodipodi.sourceforge.net/DTD/sodipodi-0.dtd"
   xmlns:inkscape="http://www.inkscape.org/namespaces/inkscape"
   width="256"
   height="256"
   viewBox="0 0 256 256"
   id="svg8983"
   version="1.1"
   inkscape:version="0.91 r13725"
   sodipodi:docname="icon_template_256x256.svg"
   inkscape:export-filename="/run/media/iko/home/Downloads/directory.png"
   inkscape:export-xdpi="90"
   inkscape:export-ydpi="90">
  <defs
     id="defs8985" />
  <sodipodi:namedview
     id="base"
     pagecolor="#ffffff"
     bordercolor="#666666"
     borderopacity="1.0"
     inkscape:pageopacity="0.0"
     inkscape:pageshadow="2"
     inkscape:zoom="1.979899"
     inkscape:cx="23.591396"
     inkscape:cy="188.23412"
     inkscape:document-units="px"
     inkscape:current-layer="layer1"
     showgrid="true"
     inkscape:showpageshadow="false"
     borderlayer="true"
     units="px"
     inkscape:window-width="1920"
     inkscape:window-height="1030"
     inkscape:window-x="0"
     inkscape:window-y="26"
     inkscape:window-maximized="1">
    <inkscape:grid
       type="xygrid"
       id="grid3341"
       spacingx="4"
       empspacing="16"
       spacingy="4" />
  </sodipodi:namedview>
  <metadata
     id="metadata8988">
    <rdf:RDF>
      <cc:Work
         rdf:about="">
        <dc:format>image/svg+xml</dc:format>
        <dc:type
           rdf:resource="http://purl.org/dc/dcmitype/StillImage" />
        <dc:title></dc:title>
      </cc:Work>
    </rdf:RDF>
  </metadata>
  <g
     inkscape:label="icon"
     inkscape:groupmode="layer"
     id="layer1"
     transform="translate(0,-796.36219)"
     style="display:inline">
    <g
       id="g4682"
       transform="translate(-64.000007,127.35916)">
      <g
         id="g4575"
         style="display:inline"
         transform="translate(64,348.36219)">
        <path
           inkscape:connector-curvature="0"
           id="rect4702-9-9"
           d="m 235.61012,375.98286 0,160.91256 c 0,2.78886 -2.06472,5.03405 -4.62941,5.03405 l -205.961416,0 c -2.564698,0 -4.629419,-2.24519 -4.629419,-5.03405 l 0,-160.91256 c 0,-2.78886 2.064721,-5.03404 4.629419,-5.03404 l 205.961416,0 c 2.56469,0 4.62941,2.24518 4.62941,5.03404 z"
           style="display:inline;opacity:1;fill:#5c6099;fill-opacity:1;fill-rule:nonzero;stroke:#43488a;stroke-width:8.77974892;stroke-linecap:round;stroke-linejoin:round;stroke-miterlimit:4;stroke-dasharray:none;stroke-opacity:1" />
        <g
           id="g4550"
           style="stroke:#afb0d0;stroke-opacity:1">
          <path
             inkscape:connector-curvature="0"
             id="path7780"
             d="m 44.000002,378.03253 0,154"
             style="fill:none;fill-rule:evenodd;stroke:#afb0d0;stroke-width:0.875px;stroke-linecap:butt;stroke-linejoin:miter;stroke-opacity:1" />
          <path
             inkscape:connector-curvature="0"
             id="path7782"
             d="m 58.000002,378.03253 0,154"
             style="fill:none;fill-rule:evenodd;stroke:#afb0d0;stroke-width:0.875px;stroke-linecap:butt;stroke-linejoin:miter;stroke-opacity:1" />
          <path
             inkscape:connector-curvature="0"
             id="path7784"
             d="m 72.000001,378.03253 0,154"
             style="fill:none;fill-rule:evenodd;stroke:#afb0d0;stroke-width:0.875px;stroke-linecap:butt;stroke-linejoin:miter;stroke-opacity:1" />
          <path
             inkscape:connector-curvature="0"
             id="path7786"
             d="m 86.000001,378.03253 0,154"
             style="fill:none;fill-rule:evenodd;stroke:#afb0d0;stroke-width:0.875px;stroke-linecap:butt;stroke-linejoin:miter;stroke-opacity:1" />
          <path
             inkscape:connector-curvature="0"
             id="path7788"
             d="m 100,378.03253 0,154"
             style="fill:none;fill-rule:evenodd;stroke:#afb0d0;stroke-width:0.875px;stroke-linecap:butt;stroke-linejoin:miter;stroke-opacity:1" />
          <path
             inkscape:connector-curvature="0"
             id="path7790"
             d="m 114,378.03253 0,154"
             style="fill:none;fill-rule:evenodd;stroke:#afb0d0;stroke-width:0.875px;stroke-linecap:butt;stroke-linejoin:miter;stroke-opacity:1" />
          <path
             style="fill:none;fill-rule:evenodd;stroke:#afb0d0;stroke-width:0.875px;stroke-linecap:butt;stroke-linejoin:miter;stroke-opacity:1"
             d="m 142.4375,378.03253 0,154"
             id="path7792"
             inkscape:connector-curvature="0" />
          <path
             style="fill:none;fill-rule:evenodd;stroke:#afb0d0;stroke-width:0.875px;stroke-linecap:butt;stroke-linejoin:miter;stroke-opacity:1"
             d="m 156.4375,378.03253 0,154"
             id="path7794"
             inkscape:connector-curvature="0" />
          <path
             style="fill:none;fill-rule:evenodd;stroke:#afb0d0;stroke-width:0.875px;stroke-linecap:butt;stroke-linejoin:miter;stroke-opacity:1"
             d="m 170.4375,378.03253 0,154"
             id="path7796"
             inkscape:connector-curvature="0" />
          <path
             style="fill:none;fill-rule:evenodd;stroke:#afb0d0;stroke-width:0.875px;stroke-linecap:butt;stroke-linejoin:miter;stroke-opacity:1"
             d="m 184.4375,378.03253 0,154"
             id="path7798"
             inkscape:connector-curvature="0" />
          <path
             style="fill:none;fill-rule:evenodd;stroke:#afb0d0;stroke-width:0.875px;stroke-linecap:butt;stroke-linejoin:miter;stroke-opacity:1"
             d="m 198.4375,378.03253 0,154"
             id="path7800"
             inkscape:connector-curvature="0" />
          <path
             style="fill:none;fill-rule:evenodd;stroke:#afb0d0;stroke-width:0.875px;stroke-linecap:butt;stroke-linejoin:miter;stroke-opacity:1"
             d="m 212.4375,378.03253 0,154"
             id="path7802"
             inkscape:connector-curvature="0" />
          <path
             style="fill:none;fill-rule:evenodd;stroke:#afb0d0;stroke-width:0.875px;stroke-linecap:butt;stroke-linejoin:miter;stroke-opacity:1"
             d="m 127.5625,378.03253 0,154"
             id="path7804"
             inkscape:connector-curvature="0" />
          <path
             sodipodi:nodetypes="cc"
             style="fill:none;fill-rule:evenodd;stroke:#afb0d0;stroke-width:0.875px;stroke-linecap:butt;stroke-linejoin:miter;stroke-opacity:1"
             d="m 30.000002,518.90753 195.999998,0"
             id="path7812"
             inkscape:connector-curvature="0" />
          <path
             sodipodi:nodetypes="cc"
             style="fill:none;fill-rule:evenodd;stroke:#afb0d0;stroke-width:0.875px;stroke-linecap:butt;stroke-linejoin:miter;stroke-opacity:1"
             d="m 30.000002,504.90753 195.999998,0"
             id="path7814"
             inkscape:connector-curvature="0" />
          <path
             sodipodi:nodetypes="cc"
             style="fill:none;fill-rule:evenodd;stroke:#afb0d0;stroke-width:0.875px;stroke-linecap:butt;stroke-linejoin:miter;stroke-opacity:1"
             d="m 30.000002,490.90753 195.999998,0"
             id="path7816"
             inkscape:connector-curvature="0" />
          <path
             sodipodi:nodetypes="cc"
             inkscape:connector-curvature="0"
             id="path7818"
             d="m 30.000002,462.47003 195.999998,0"
             style="fill:none;fill-rule:evenodd;stroke:#afb0d0;stroke-width:0.875px;stroke-linecap:butt;stroke-linejoin:miter;stroke-opacity:1" />
          <path
             sodipodi:nodetypes="cc"
             inkscape:connector-curvature="0"
             id="path7820"
             d="m 30.000002,448.47003 195.999998,0"
             style="fill:none;fill-rule:evenodd;stroke:#afb0d0;stroke-width:0.875px;stroke-linecap:butt;stroke-linejoin:miter;stroke-opacity:1" />
          <path
             sodipodi:nodetypes="cc"
             inkscape:connector-curvature="0"
             id="path7822"
             d="m 30.000002,434.47003 195.999998,0"
             style="fill:none;fill-rule:evenodd;stroke:#afb0d0;stroke-width:0.875px;stroke-linecap:butt;stroke-linejoin:miter;stroke-opacity:1" />
          <path
             sodipodi:nodetypes="cc"
             inkscape:connector-curvature="0"
             id="path7824"
             d="m 30.000002,420.47003 195.999998,0"
             style="fill:none;fill-rule:evenodd;stroke:#afb0d0;stroke-width:0.875px;stroke-linecap:butt;stroke-linejoin:miter;stroke-opacity:1" />
          <path
             sodipodi:nodetypes="cc"
             inkscape:connector-curvature="0"
             id="path7826"
             d="m 30.000002,406.47003 195.999998,0"
             style="fill:none;fill-rule:evenodd;stroke:#afb0d0;stroke-width:0.875px;stroke-linecap:butt;stroke-linejoin:miter;stroke-opacity:1" />
          <path
             sodipodi:nodetypes="cc"
             inkscape:connector-curvature="0"
             id="path7828"
             d="m 30.000002,392.47003 195.999998,0"
             style="fill:none;fill-rule:evenodd;stroke:#afb0d0;stroke-width:0.875px;stroke-linecap:butt;stroke-linejoin:miter;stroke-opacity:1" />
          <path
             sodipodi:nodetypes="cc"
             inkscape:connector-curvature="0"
             id="path7830"
             d="m 30.000002,477.34503 195.999998,0"
             style="fill:none;fill-rule:evenodd;stroke:#afb0d0;stroke-width:0.875px;stroke-linecap:butt;stroke-linejoin:miter;stroke-opacity:1" />
        </g>
        <path
           inkscape:connector-curvature="0"
           id="rect7862"
           d="m 35.015957,378.03253 185.968093,0 c 2.77883,0 5.01595,2.05815 5.01595,4.61468 l 0,144.77064 c 0,2.55652 -2.23712,4.61468 -5.01595,4.61468 l -185.968093,0 c -2.778839,0 -5.015955,-2.05816 -5.015955,-4.61468 l 0,-144.77064 c 0,-2.55653 2.237116,-4.61468 5.015955,-4.61468 z"
           style="opacity:1;fill:none;fill-opacity:1;fill-rule:nonzero;stroke:#43488a;stroke-width:1.75;stroke-linecap:round;stroke-linejoin:miter;stroke-miterlimit:4;stroke-dasharray:none;stroke-opacity:1" />
        <path
           d="m 66.221856,435.8799 c 0,-5.03136 2.201222,-6.91812 9.538627,-6.91812 l 0,-12.47359 -6.184385,0 c -12.997689,0 -17.714592,3.77352 -17.714592,14.25553 l 0,20.02063 c 0,3.45907 -1.153021,4.82173 -4.087983,4.82173 l -3.773523,0 0,12.78805 3.773523,0 c 2.934962,0 4.087983,1.36266 4.087983,4.92654 l 0,19.91581 c 0,10.58684 4.716903,14.36035 17.714592,14.36035 l 6.184385,0 0,-12.47359 c -7.337405,0 -9.538627,-1.88676 -9.538627,-6.91812 l 0,-13.83625 c 0,-7.3374 -2.096401,-10.79646 -8.175966,-12.36877 6.079565,-1.46748 8.175966,-4.92654 8.175966,-12.26395 l 0,-13.83625 z"
           style="font-style:normal;font-variant:normal;font-weight:600;font-stretch:normal;font-size:119.79437256px;line-height:125%;font-family:Montserrat;-inkscape-font-specification:'Montserrat Semi-Bold';text-align:center;letter-spacing:0px;word-spacing:0px;text-anchor:middle;fill:#ffffff;fill-opacity:1;stroke:none;stroke-width:1px;stroke-linecap:butt;stroke-linejoin:miter;stroke-opacity:1"
           id="path8333"
           inkscape:connector-curvature="0" />
        <path
           d="m 211.99999,455.58608 -3.77352,0 c -2.93496,0 -4.08799,-1.36266 -4.08799,-4.82173 l 0,-20.02063 c 0,-10.48201 -4.71689,-14.25553 -17.71458,-14.25553 l -6.18439,0 0,12.47359 c 7.23259,0 9.43381,1.88676 9.43381,6.91812 l 0,13.83625 c 0,7.33741 2.20122,10.79647 8.28079,12.26395 -6.07957,1.57231 -8.28079,5.03137 -8.28079,12.36877 l 0,13.83625 c 0,5.03136 -2.20122,6.91812 -9.43381,6.91812 l 0,12.47359 6.18439,0 c 12.99769,0 17.71458,-3.77351 17.71458,-14.36035 l 0,-19.91581 c 0,-3.56388 1.15303,-4.92654 4.08799,-4.92654 l 3.77352,0 0,-12.78805 z"
           style="font-style:normal;font-variant:normal;font-weight:600;font-stretch:normal;font-size:119.79437256px;line-height:125%;font-family:Montserrat;-inkscape-font-specification:'Montserrat Semi-Bold';text-align:center;letter-spacing:0px;word-spacing:0px;text-anchor:middle;fill:#ffffff;fill-opacity:1;stroke:none;stroke-width:1px;stroke-linecap:butt;stroke-linejoin:miter;stroke-opacity:1"
           id="path8336"
           inkscape:connector-curvature="0" />
        <path
           d="m 152.10862,444.60271 0,-10.16755 -48.11242,0 0,12.57841 27.98697,0.10481 -29.03516,33.43761 0,10.16755 50.10399,0.10481 0,-12.78804 -29.97854,0 29.03516,-33.4376 z"
           style="font-style:normal;font-variant:normal;font-weight:600;font-stretch:normal;font-size:119.79437256px;line-height:125%;font-family:Montserrat;-inkscape-font-specification:'Montserrat Semi-Bold';text-align:center;letter-spacing:0px;word-spacing:0px;text-anchor:middle;fill:#ffffff;fill-opacity:1;stroke:none;stroke-width:1px;stroke-linecap:butt;stroke-linejoin:miter;stroke-opacity:1"
           id="path8339"
           inkscape:connector-curvature="0" />
        <path
           style="opacity:1;fill:#d5d6e5;fill-opacity:1;fill-rule:nonzero;stroke:none;stroke-width:10;stroke-linecap:round;stroke-linejoin:round;stroke-miterlimit:4;stroke-dasharray:none;stroke-opacity:1"
           d="m 167.85218,361.35482 9.71942,-9.71942 c 0.89742,-0.89742 2.34237,-0.89742 3.2398,10e-6 l 74.51554,74.51553 c 0.89743,0.89743 0.89743,2.34238 0,3.23981 l -9.71942,9.71941 c -0.89743,0.89743 -2.34238,0.89743 -3.23981,0 l -74.51553,-74.51553 c -0.89743,-0.89743 -0.89743,-2.34238 0,-3.23981 z"
           id="rect7982"
           inkscape:connector-curvature="0" />
        <path
           style="fill:none;fill-rule:evenodd;stroke:#7f82ae;stroke-width:1.71816659;stroke-linecap:butt;stroke-linejoin:miter;stroke-miterlimit:4;stroke-dasharray:none;stroke-opacity:1"
           d="m 185.67111,362.97472 3.2398,-3.2398"
           id="path7984"
           inkscape:connector-curvature="0" />
        <path
           style="fill:none;fill-rule:evenodd;stroke:#7f82ae;stroke-width:1.71816659;stroke-linecap:butt;stroke-linejoin:miter;stroke-miterlimit:4;stroke-dasharray:none;stroke-opacity:1"
           d="m 196.74176,371.34291 1.88857,-1.88857"
           id="path7986"
           inkscape:connector-curvature="0"
           sodipodi:nodetypes="cc" />
        <path
           style="fill:none;fill-rule:evenodd;stroke:#7f82ae;stroke-width:1.71816659;stroke-linecap:butt;stroke-linejoin:miter;stroke-miterlimit:4;stroke-dasharray:none;stroke-opacity:1"
           d="m 205.10995,382.41356 3.2398,-3.2398"
           id="path7988"
           inkscape:connector-curvature="0" />
        <path
           style="fill:none;fill-rule:evenodd;stroke:#7f82ae;stroke-width:1.71816659;stroke-linecap:butt;stroke-linejoin:miter;stroke-miterlimit:4;stroke-dasharray:none;stroke-opacity:1"
           d="m 216.1806,390.78174 1.88857,-1.88857"
           id="path7990"
           inkscape:connector-curvature="0"
           sodipodi:nodetypes="cc" />
        <path
           style="fill:none;fill-rule:evenodd;stroke:#7f82ae;stroke-width:1.71816659;stroke-linecap:butt;stroke-linejoin:miter;stroke-miterlimit:4;stroke-dasharray:none;stroke-opacity:1"
           d="m 224.54878,401.8524 3.23981,-3.23981"
           id="path7992"
           inkscape:connector-curvature="0" />
        <path
           style="fill:none;fill-rule:evenodd;stroke:#7f82ae;stroke-width:1.71816659;stroke-linecap:butt;stroke-linejoin:miter;stroke-miterlimit:4;stroke-dasharray:none;stroke-opacity:1"
           d="m 235.61944,410.22058 1.88856,-1.88857"
           id="path7994"
           inkscape:connector-curvature="0"
           sodipodi:nodetypes="cc" />
        <path
           style="fill:none;fill-rule:evenodd;stroke:#7f82ae;stroke-width:1.71816659;stroke-linecap:butt;stroke-linejoin:miter;stroke-miterlimit:4;stroke-dasharray:none;stroke-opacity:1"
           d="m 243.98762,421.29123 3.2398,-3.2398"
           id="path7996"
           inkscape:connector-curvature="0" />
        <path
           style="opacity:1;fill:#afb0d0;fill-opacity:1;fill-rule:nonzero;stroke:none;stroke-width:10;stroke-linecap:round;stroke-linejoin:round;stroke-miterlimit:4;stroke-dasharray:none;stroke-opacity:1"
           d="m 167.85218,361.35482 8.09951,-8.09952 77.75535,77.75535 -8.09952,8.09951 c -0.89743,0.89743 -2.34238,0.89743 -3.23981,0 l -74.51553,-74.51553 c -0.89743,-0.89743 -0.89743,-2.34238 0,-3.23981 z"
           id="rect8016"
           inkscape:connector-curvature="0"
           sodipodi:nodetypes="sccssss" />
        <path
           style="opacity:1;fill:#d5d6e5;fill-opacity:1;fill-rule:nonzero;stroke:none;stroke-width:2;stroke-linecap:round;stroke-linejoin:round;stroke-miterlimit:4;stroke-dasharray:none;stroke-opacity:1"
           d="m 64.600072,371.15168 3.452337,3.45233 -38.907846,38.90785 -3.452336,-3.45234 z"
           id="rect8027"
           inkscape:connector-curvature="0" />
        <path
           style="opacity:1;fill:#7f82ae;fill-opacity:1;fill-rule:nonzero;stroke:none;stroke-width:1.93088472;stroke-linecap:round;stroke-linejoin:round;stroke-miterlimit:4;stroke-dasharray:none;stroke-opacity:1"
           d="m 36.121685,398.62766 4.454736,4.45474 c 1.373226,1.37323 1.373224,3.58427 -3e-6,4.9575 l -30.134266,30.13426 c -1.3732264,1.37323 -3.5842701,1.37323 -4.9574963,0 l -4.4547355,-4.45473 c -1.3732256,-1.37323 -1.37322376,-3.58427 2.5e-6,-4.9575 L 31.164189,398.62767 c 1.373226,-1.37323 3.584271,-1.37323 4.957496,-1e-5 z"
           id="rect8025"
           inkscape:connector-curvature="0" />
        <path
           style="fill:#d5d6e5;fill-opacity:1;fill-rule:evenodd;stroke:none;stroke-width:1px;stroke-linecap:butt;stroke-linejoin:miter;stroke-opacity:1"
           d="m 76.428794,364.07396 -1.526456,-1.52646 c -0.993938,-0.99394 -6.62565,0.81515 -7.482405,1.6719 -0.640303,0.6403 -1.648755,2.09423 -2.373564,3.28263 -0.584006,0.95753 -0.934739,5.60705 -0.05694,6.48484 0.946786,0.94679 5.581921,0.54316 6.647698,0.10591 1.065792,-0.43727 2.327492,-1.28856 3.342582,-2.30365 0.635953,-0.63595 2.710364,-6.4539 1.44909,-7.71517 z"
           id="path8031"
           inkscape:connector-curvature="0"
           sodipodi:nodetypes="ccssszsc" />
      </g>
    </g>
  </g>
</svg>
